<?xml version="1.0" encoding="utf-8"?>
<!-- Generator: Adobe Illustrator 25.1.0, SVG Export Plug-In . SVG Version: 6.00 Build 0)  -->
<svg version="1.1" id="svg2" xmlns="http://www.w3.org/2000/svg" xmlns:xlink="http://www.w3.org/1999/xlink" x="0px" y="0px"
	 viewBox="0 0 1383 2500" style="enable-background:new 0 0 1383 2500;" xml:space="preserve">
<style type="text/css">
	.st0{fill:#B1060F;stroke:#000000;stroke-width:3.2741;stroke-miterlimit:13.0964;}
	.st1{fill:url(#path5719_1_);}
	.st2{fill:#E50914;}
</style>
<g id="layer1" transform="translate(12.495 6.756)">
	<g id="g4182">
		<g id="g5747" transform="translate(81.631 113.771) scale(.29074)">
			<path id="path4155" class="st0" d="M2731-389.2l-3.4,1891.9l-3.4,1891.9l-155.4-439.2v-1.1L2367.3,7166
				c198.2,558.6,304.1,857,305.2,858.1c1.1,1.1,113.7,7.9,250,14.6c412.2,20.3,923.4,64.2,1311.9,112.6
				c90.1,11.3,166.7,16.9,172.3,12.4c5.6-4.5,6.8-1930.2,5.6-4280.4L4409-389.2L2731-389.2L2731-389.2z"/>
			<path id="path4157" class="st0" d="M-303.9-394.8v4277c0,2352.5,2.3,4279.3,5.6,4282.7c3.4,3.4,148.6-11.3,324.3-30.4
				c175.7-19.1,417.8-43.9,538.3-54.1c184.7-15.8,738.7-50.7,801.8-51.8c19.1,0,20.3-95.7,22.5-1811.9l3.4-1811.9l134,378.4
				c20.3,58.6,27,76.6,47.3,134l201.6-4210.6c-42.8-120.5-20.3-57.4-68.7-194.8c-164.4-465.1-304.1-858.1-309.7-876.1l-11.3-31.5
				H-303.9L-303.9-394.8z"/>
			<path id="path5715" class="st0" d="M2731-389.2l-3.4,1891.9l-3.4,1891.9l-155.4-439.2v-1.1L2367.3,7166
				c198.2,558.6,304.1,857,305.2,858.1c1.1,1.1,113.7,7.9,250,14.6c412.2,20.3,923.4,64.2,1311.9,112.6
				c90.1,11.3,166.7,16.9,172.3,12.4c5.6-4.5,6.8-1930.2,5.6-4280.4L4409-389.2L2731-389.2L2731-389.2z"/>
			<path id="path5717" class="st0" d="M-303.9-394.8v4277c0,2352.5,2.3,4279.3,5.6,4282.7c3.4,3.4,148.6-11.3,324.3-30.4
				c175.7-19.1,417.8-43.9,538.3-54.1c184.7-15.8,738.7-50.7,801.8-51.8c19.1,0,20.3-95.7,22.5-1811.9l3.4-1811.9l134,378.4
				c20.3,58.6,27,76.6,47.3,134l201.6-4210.6c-42.8-120.5-20.3-57.4-68.7-194.8c-164.4-465.1-304.1-858.1-309.7-876.1l-11.3-31.5
				H-303.9L-303.9-394.8z"/>
			
				<radialGradient id="path5719_1_" cx="63427.8008" cy="5032.2861" r="368.717" gradientTransform="matrix(0.2315 -8.018269e-02 2.9369 8.4819 -27490.7734 -33762.4102)" gradientUnits="userSpaceOnUse">
				<stop  offset="0" style="stop-color:#000000"/>
				<stop  offset="1" style="stop-color:#000000;stop-opacity:0"/>
			</radialGradient>
			<path id="path5719" class="st1" d="M-303.9-394.8v2400.9l1691.4,4486.5c0-102.5,0-158.8,1.1-275.9l3.4-1811.9l134,378.4
				c743.2,2108.1,1143,3238.7,1145.3,3241c1.1,1.1,113.7,7.9,250,14.6c412.2,20.3,923.4,64.2,1311.9,112.6
				c90.1,11.3,166.7,16.9,172.3,12.4c3.4-3.4,5.6-947.1,5.6-2279.3L2728.8,1044.4l-1.1,458.3l-3.4,1891.9l-155.4-439.2
				c-152-429.1-253.4-716.2-864.9-2443.7c-164.4-465.1-304.1-858.1-309.7-876.1l-11.3-31.5H-303.9V-394.8L-303.9-394.8z"/>
			<path id="path5721" class="st2" d="M-303.9-394.8l1694.8,4802.9v-2.3l134,378.4c744.4,2107,1144.1,3237.6,1146.4,3239.9
				c1.1,1.1,113.7,7.9,250,14.6c412.2,20.3,923.4,64.2,1311.9,112.6c89,11.3,166.7,16.9,171.2,12.4L2724.3,3393.5v1.1l-155.4-439.2
				c-152-429.1-253.4-716.2-864.9-2443.7c-164.4-465.1-304.1-858.1-309.7-876.1l-11.3-31.5H539.6L-303.9-394.8L-303.9-394.8z"/>
		</g>
	</g>
</g>
</svg>
